<svg width="266" height="28" viewBox="0 0 266 28" fill="none" xmlns="http://www.w3.org/2000/svg">
<path d="M0 6H264C265.105 6 266 6.89543 266 8V26C266 27.1046 265.105 28 264 28H1.99999C0.895423 28 0 27.1046 0 26V6Z" fill="#F25931"/>
<g clip-path="url(#clip0_228_79)">
<path fill-rule="evenodd" clip-rule="evenodd" d="M17.7135 21.6208L11.5215 11.3086C11.0445 10.5166 9.90781 10.5166 9.44161 11.3086L3.24961 21.6208C2.76361 22.4326 3.35131 23.4577 4.29541 23.4577H16.6776C16.8919 23.457 17.1022 23.3995 17.287 23.2911C17.4718 23.1827 17.6246 23.0272 17.7298 22.8405C17.835 22.6538 17.8888 22.4426 17.8858 22.2283C17.8828 22.0141 17.823 21.8044 17.7126 21.6208H17.7135ZM9.59371 14.9014C9.59336 14.7934 9.61437 14.6864 9.65554 14.5865C9.6967 14.4867 9.75722 14.3959 9.83359 14.3196C9.90996 14.2432 10.0007 14.1827 10.1005 14.1415C10.2004 14.1004 10.3074 14.0793 10.4154 14.0797H10.527C10.6351 14.0792 10.7422 14.1001 10.8422 14.1413C10.9421 14.1824 11.033 14.2429 11.1094 14.3193C11.1859 14.3956 11.2465 14.4864 11.2877 14.5863C11.3289 14.6862 11.35 14.7933 11.3496 14.9014V17.9767C11.3501 18.0849 11.3291 18.192 11.288 18.2921C11.2468 18.3921 11.1862 18.4829 11.1097 18.5594C11.0333 18.6359 10.9424 18.6965 10.8424 18.7377C10.7424 18.7788 10.6352 18.7998 10.527 18.7993H10.4154C10.3073 18.7997 10.2002 18.7786 10.1003 18.7374C10.0004 18.6962 9.90965 18.6356 9.83327 18.5591C9.75688 18.4826 9.69639 18.3918 9.65528 18.2918C9.61416 18.1919 9.59324 18.0848 9.59371 17.9767V14.9014ZM11.5116 20.8693C11.5116 21.4381 11.0454 21.9043 10.4766 21.9043C9.90781 21.9043 9.44161 21.4381 9.44161 20.8693C9.44161 20.3014 9.90781 19.8343 10.4766 19.8343C11.0454 19.8343 11.5116 20.3014 11.5116 20.8693Z" fill="white"/>
</g>
<path d="M23.2695 22V12.7197H30.1821V22H29.1157V13.6719H24.3486V22H23.2695ZM39.1801 18.5088C39.1801 19.0801 39.106 19.59 38.9579 20.0386C38.8098 20.4871 38.5961 20.8659 38.3168 21.1748C38.0375 21.4837 37.699 21.7207 37.3012 21.8857C36.9076 22.0465 36.4612 22.127 35.9618 22.127C35.4963 22.127 35.0689 22.0465 34.6796 21.8857C34.2945 21.7207 33.9602 21.4837 33.6767 21.1748C33.3974 20.8659 33.1794 20.4871 33.0229 20.0386C32.8705 19.59 32.7943 19.0801 32.7943 18.5088C32.7943 17.7471 32.9234 17.0996 33.1815 16.5664C33.4397 16.029 33.8078 15.6206 34.286 15.3413C34.7685 15.0578 35.3419 14.916 36.0063 14.916C36.641 14.916 37.1954 15.0578 37.6693 15.3413C38.1475 15.6248 38.5178 16.0353 38.7802 16.5728C39.0468 17.106 39.1801 17.7513 39.1801 18.5088ZM33.8861 18.5088C33.8861 19.0674 33.9602 19.5519 34.1083 19.9624C34.2564 20.3729 34.4849 20.6903 34.7938 20.9146C35.1028 21.1388 35.5006 21.251 35.9872 21.251C36.4696 21.251 36.8653 21.1388 37.1742 20.9146C37.4874 20.6903 37.718 20.3729 37.8661 19.9624C38.0142 19.5519 38.0883 19.0674 38.0883 18.5088C38.0883 17.9544 38.0142 17.4762 37.8661 17.0742C37.718 16.668 37.4895 16.3548 37.1806 16.1348C36.8716 15.9147 36.4717 15.8047 35.9809 15.8047C35.2572 15.8047 34.7261 16.0438 34.3876 16.522C34.0533 17.0002 33.8861 17.6624 33.8861 18.5088ZM46.8196 22H45.7469V15.9253H43.6331C43.5485 17.0213 43.4406 17.9608 43.3094 18.7437C43.1824 19.5223 43.0216 20.1592 42.827 20.6543C42.6365 21.1452 42.4038 21.507 42.1287 21.7397C41.8579 21.9683 41.5341 22.0825 41.1575 22.0825C41.0433 22.0825 40.9354 22.0762 40.8338 22.0635C40.7322 22.0508 40.6455 22.0296 40.5735 22V21.2002C40.6285 21.2171 40.6857 21.2298 40.7449 21.2383C40.8084 21.2467 40.874 21.251 40.9417 21.251C41.1321 21.251 41.3056 21.1727 41.4622 21.0161C41.623 20.8553 41.7669 20.6141 41.8938 20.2925C42.025 19.9709 42.1414 19.5646 42.243 19.0737C42.3445 18.5786 42.4334 17.9967 42.5096 17.3281C42.59 16.6553 42.6598 15.8936 42.719 15.043H46.8196V22ZM52.32 14.916C52.9125 14.916 53.4203 15.0472 53.8435 15.3096C54.2666 15.5719 54.5904 15.9401 54.8146 16.4141C55.0389 16.8838 55.1511 17.4339 55.1511 18.0645V18.7183H50.3459C50.3586 19.535 50.5617 20.1571 50.9553 20.5845C51.3488 21.0119 51.9032 21.2256 52.6184 21.2256C53.0585 21.2256 53.4478 21.1854 53.7863 21.105C54.1249 21.0246 54.4761 20.9061 54.84 20.7495V21.6763C54.4888 21.8328 54.1397 21.9471 53.7927 22.019C53.4499 22.091 53.0437 22.127 52.5739 22.127C51.9053 22.127 51.3213 21.9915 50.822 21.7207C50.3269 21.4456 49.9418 21.0436 49.6667 20.5146C49.3916 19.9857 49.2541 19.3382 49.2541 18.5723C49.2541 17.8232 49.3789 17.1758 49.6286 16.6299C49.8825 16.0798 50.238 15.6566 50.695 15.3604C51.1563 15.0641 51.6979 14.916 52.32 14.916ZM52.3073 15.7793C51.7445 15.7793 51.2959 15.9634 50.9616 16.3315C50.6273 16.6997 50.4284 17.2139 50.3649 17.874H54.0466C54.0423 17.4593 53.9768 17.0954 53.8498 16.7822C53.7271 16.4648 53.5388 16.2194 53.2849 16.0459C53.031 15.8682 52.7051 15.7793 52.3073 15.7793ZM67.5166 18.5088C67.5166 19.0801 67.4425 19.59 67.2944 20.0386C67.1463 20.4871 66.9326 20.8659 66.6533 21.1748C66.374 21.4837 66.0355 21.7207 65.6377 21.8857C65.2441 22.0465 64.7977 22.127 64.2983 22.127C63.8328 22.127 63.4054 22.0465 63.0161 21.8857C62.631 21.7207 62.2967 21.4837 62.0132 21.1748C61.7339 20.8659 61.516 20.4871 61.3594 20.0386C61.207 19.59 61.1309 19.0801 61.1309 18.5088C61.1309 17.7471 61.2599 17.0996 61.5181 16.5664C61.7762 16.029 62.1444 15.6206 62.6226 15.3413C63.105 15.0578 63.6784 14.916 64.3428 14.916C64.9775 14.916 65.5319 15.0578 66.0059 15.3413C66.484 15.6248 66.8543 16.0353 67.1167 16.5728C67.3833 17.106 67.5166 17.7513 67.5166 18.5088ZM62.2227 18.5088C62.2227 19.0674 62.2967 19.5519 62.4448 19.9624C62.5929 20.3729 62.8215 20.6903 63.1304 20.9146C63.4393 21.1388 63.8371 21.251 64.3237 21.251C64.8062 21.251 65.2018 21.1388 65.5107 20.9146C65.8239 20.6903 66.0545 20.3729 66.2026 19.9624C66.3507 19.5519 66.4248 19.0674 66.4248 18.5088C66.4248 17.9544 66.3507 17.4762 66.2026 17.0742C66.0545 16.668 65.826 16.3548 65.5171 16.1348C65.2082 15.9147 64.8083 15.8047 64.3174 15.8047C63.5938 15.8047 63.0627 16.0438 62.7241 16.522C62.3898 17.0002 62.2227 17.6624 62.2227 18.5088ZM69.5766 17.8232C69.5766 16.833 69.6718 15.9888 69.8622 15.2905C70.0526 14.5881 70.3467 14.0252 70.7445 13.6021C71.1465 13.1746 71.6628 12.8826 72.2934 12.7261C72.835 12.578 73.3852 12.451 73.9437 12.3452C74.5023 12.2352 75.0461 12.14 75.5751 12.0596L75.7592 12.9863C75.4926 13.0244 75.2133 13.0688 74.9213 13.1196C74.6293 13.1662 74.3373 13.217 74.0453 13.272C73.7533 13.3228 73.4783 13.3778 73.2201 13.437C72.962 13.492 72.7335 13.5492 72.5346 13.6084C72.1749 13.7057 71.8638 13.875 71.6015 14.1162C71.3433 14.3574 71.1381 14.6896 70.9857 15.1128C70.8376 15.536 70.7488 16.0692 70.7191 16.7124H70.7953C70.9223 16.5262 71.0958 16.3421 71.3158 16.1602C71.5359 15.9782 71.7982 15.828 72.1029 15.7095C72.4076 15.5868 72.7504 15.5254 73.1312 15.5254C73.7322 15.5254 74.2336 15.6566 74.6356 15.9189C75.0377 16.1771 75.3402 16.541 75.5434 17.0107C75.7465 17.4805 75.848 18.0306 75.848 18.6611C75.848 19.4186 75.7169 20.0555 75.4545 20.5718C75.1964 21.0881 74.8324 21.4774 74.3627 21.7397C73.893 21.9979 73.3407 22.127 72.706 22.127C72.2151 22.127 71.775 22.0317 71.3856 21.8413C71.0006 21.6509 70.6726 21.3716 70.4018 21.0034C70.1352 20.6353 69.9299 20.1846 69.786 19.6514C69.6464 19.1182 69.5766 18.5088 69.5766 17.8232ZM72.7885 21.251C73.1905 21.251 73.5354 21.1663 73.8231 20.9971C74.1151 20.8278 74.3394 20.5612 74.496 20.1973C74.6568 19.8291 74.7372 19.3509 74.7372 18.7627C74.7372 18.0264 74.5954 17.4508 74.3119 17.0361C74.0326 16.6172 73.584 16.4077 72.9662 16.4077C72.5811 16.4077 72.232 16.4902 71.9188 16.6553C71.6057 16.8161 71.3412 17.0086 71.1254 17.2329C70.9096 17.4572 70.753 17.6582 70.6557 17.8359C70.6557 18.2676 70.6874 18.6865 70.7509 19.0928C70.8144 19.499 70.9244 19.8651 71.081 20.1909C71.2375 20.5168 71.4534 20.7749 71.7284 20.9653C72.0077 21.1558 72.3611 21.251 72.7885 21.251ZM78.6063 22H77.3748L79.3807 19.0674C79.0887 19.0039 78.8178 18.896 78.5682 18.7437C78.3185 18.5871 78.1154 18.3734 77.9588 18.1025C77.8064 17.8317 77.7303 17.4953 77.7303 17.0933C77.7303 16.4246 77.9524 15.9168 78.3968 15.5698C78.8453 15.2186 79.4357 15.043 80.1678 15.043H83.2464V22H82.1927V19.207H80.428L78.6063 22ZM78.7522 17.0996C78.7522 17.5143 78.9004 17.8232 79.1966 18.0264C79.4928 18.2253 79.916 18.3247 80.4661 18.3247H82.1927V15.9253H80.282C79.7404 15.9253 79.3489 16.0353 79.1077 16.2554C78.8707 16.4712 78.7522 16.7526 78.7522 17.0996ZM87.8581 14.916C88.3786 14.916 88.8293 14.988 89.2102 15.1318C89.591 15.2715 89.8851 15.4767 90.0925 15.7476C90.2998 16.0184 90.4035 16.3485 90.4035 16.7378C90.4035 17.1567 90.2893 17.491 90.0607 17.7407C89.8322 17.9904 89.517 18.1702 89.1149 18.2803V18.3311C89.3985 18.4072 89.6545 18.5173 89.883 18.6611C90.1158 18.8008 90.2998 18.987 90.4353 19.2197C90.5749 19.4482 90.6447 19.7339 90.6447 20.0767C90.6447 20.466 90.5389 20.8172 90.3273 21.1304C90.1158 21.4393 89.7941 21.6826 89.3625 21.8604C88.9309 22.0381 88.385 22.127 87.7248 22.127C87.399 22.127 87.09 22.1079 86.798 22.0698C86.5061 22.036 86.2416 21.9852 86.0046 21.9175C85.7676 21.8498 85.5603 21.7694 85.3825 21.6763V20.7178C85.6787 20.8617 86.0257 20.9886 86.4235 21.0986C86.8213 21.2087 87.2508 21.2637 87.7121 21.2637C88.0676 21.2637 88.3871 21.2235 88.6706 21.1431C88.9541 21.0584 89.1784 20.9251 89.3435 20.7432C89.5127 20.557 89.5974 20.3136 89.5974 20.0132C89.5974 19.7381 89.5233 19.5117 89.3752 19.334C89.2271 19.152 89.0049 19.0187 88.7087 18.9341C88.4167 18.8452 88.0464 18.8008 87.5979 18.8008H86.6647V17.9375H87.4328C88.0295 17.9375 88.5056 17.8529 88.861 17.6836C89.2165 17.5143 89.3942 17.2287 89.3942 16.8267C89.3942 16.4797 89.2567 16.2215 88.9816 16.0522C88.7066 15.8787 88.313 15.792 87.801 15.792C87.4201 15.792 87.0837 15.8322 86.7917 15.9126C86.4997 15.9888 86.1844 16.0988 85.8459 16.2427L85.4714 15.3984C85.8353 15.2376 86.2162 15.117 86.614 15.0366C87.0118 14.9562 87.4265 14.916 87.8581 14.916ZM95.5548 14.9287C96.3842 14.9287 96.9999 15.1149 97.402 15.4873C97.804 15.8597 98.005 16.4543 98.005 17.271V22H97.2369L97.0338 20.9717H96.983C96.7883 21.2256 96.5852 21.4393 96.3736 21.6128C96.162 21.7821 95.9166 21.9111 95.6373 22C95.3622 22.0846 95.0237 22.127 94.6217 22.127C94.1985 22.127 93.8219 22.0529 93.4918 21.9048C93.166 21.7567 92.9078 21.5324 92.7174 21.2319C92.5312 20.9315 92.4381 20.5506 92.4381 20.0894C92.4381 19.3953 92.7132 18.8621 93.2633 18.4897C93.8134 18.1174 94.6513 17.9142 95.777 17.8804L96.9767 17.8296V17.4043C96.9767 16.8034 96.8476 16.3823 96.5895 16.1411C96.3313 15.8999 95.9674 15.7793 95.4977 15.7793C95.1337 15.7793 94.7867 15.8322 94.4566 15.938C94.1266 16.0438 93.8134 16.1686 93.5172 16.3125L93.1935 15.5127C93.5066 15.3519 93.8663 15.2144 94.2726 15.1001C94.6788 14.9858 95.1062 14.9287 95.5548 14.9287ZM96.964 18.5723L95.9039 18.6167C95.0364 18.6506 94.4249 18.7923 94.0694 19.042C93.714 19.2917 93.5362 19.645 93.5362 20.1021C93.5362 20.4998 93.6568 20.7939 93.898 20.9844C94.1393 21.1748 94.4588 21.27 94.8565 21.27C95.4744 21.27 95.9801 21.0986 96.3736 20.7559C96.7672 20.4131 96.964 19.8989 96.964 19.2134V18.5723ZM105.518 15.938H103.226V22H102.185V15.938H99.9253V15.043H105.518V15.938ZM110.174 14.916C110.766 14.916 111.274 15.0472 111.697 15.3096C112.12 15.5719 112.444 15.9401 112.668 16.4141C112.893 16.8838 113.005 17.4339 113.005 18.0645V18.7183H108.2C108.212 19.535 108.415 20.1571 108.809 20.5845C109.203 21.0119 109.757 21.2256 110.472 21.2256C110.912 21.2256 111.301 21.1854 111.64 21.105C111.979 21.0246 112.33 20.9061 112.694 20.7495V21.6763C112.343 21.8328 111.993 21.9471 111.646 22.019C111.304 22.091 110.897 22.127 110.428 22.127C109.759 22.127 109.175 21.9915 108.676 21.7207C108.181 21.4456 107.795 21.0436 107.52 20.5146C107.245 19.9857 107.108 19.3382 107.108 18.5723C107.108 17.8232 107.233 17.1758 107.482 16.6299C107.736 16.0798 108.092 15.6566 108.549 15.3604C109.01 15.0641 109.552 14.916 110.174 14.916ZM110.161 15.7793C109.598 15.7793 109.15 15.9634 108.815 16.3315C108.481 16.6997 108.282 17.2139 108.219 17.874H111.9C111.896 17.4593 111.83 17.0954 111.704 16.7822C111.581 16.4648 111.392 16.2194 111.139 16.0459C110.885 15.8682 110.559 15.7793 110.161 15.7793ZM120.613 22H119.54V15.9253H117.426C117.341 17.0213 117.234 17.9608 117.102 18.7437C116.975 19.5223 116.815 20.1592 116.62 20.6543C116.429 21.1452 116.197 21.507 115.922 21.7397C115.651 21.9683 115.327 22.0825 114.95 22.0825C114.836 22.0825 114.728 22.0762 114.627 22.0635C114.525 22.0508 114.438 22.0296 114.367 22V21.2002C114.422 21.2171 114.479 21.2298 114.538 21.2383C114.601 21.2467 114.667 21.251 114.735 21.251C114.925 21.251 115.099 21.1727 115.255 21.0161C115.416 20.8553 115.56 20.6141 115.687 20.2925C115.818 19.9709 115.934 19.5646 116.036 19.0737C116.137 18.5786 116.226 17.9967 116.303 17.3281C116.383 16.6553 116.453 15.8936 116.512 15.043H120.613V22ZM124.494 17.9121H126.627C127.22 17.9121 127.713 17.9862 128.106 18.1343C128.5 18.2824 128.794 18.5024 128.988 18.7944C129.187 19.0864 129.287 19.4482 129.287 19.8799C129.287 20.3115 129.189 20.686 128.995 21.0034C128.804 21.3208 128.508 21.5662 128.106 21.7397C127.708 21.9132 127.194 22 126.564 22H123.434V15.043H124.494V17.9121ZM128.227 19.9307C128.227 19.5033 128.074 19.207 127.77 19.042C127.469 18.8727 127.048 18.7881 126.507 18.7881H124.494V21.1431H126.513C127.021 21.1431 127.433 21.05 127.751 20.8638C128.068 20.6733 128.227 20.3623 128.227 19.9307ZM132.762 15.043V17.9629H136.641V15.043H137.694V22H136.641V18.8579H132.762V22H131.702V15.043H132.762ZM146.527 18.5088C146.527 19.0801 146.453 19.59 146.305 20.0386C146.157 20.4871 145.943 20.8659 145.664 21.1748C145.385 21.4837 145.046 21.7207 144.648 21.8857C144.255 22.0465 143.808 22.127 143.309 22.127C142.844 22.127 142.416 22.0465 142.027 21.8857C141.642 21.7207 141.307 21.4837 141.024 21.1748C140.745 20.8659 140.527 20.4871 140.37 20.0386C140.218 19.59 140.142 19.0801 140.142 18.5088C140.142 17.7471 140.271 17.0996 140.529 16.5664C140.787 16.029 141.155 15.6206 141.633 15.3413C142.116 15.0578 142.689 14.916 143.354 14.916C143.988 14.916 144.543 15.0578 145.017 15.3413C145.495 15.6248 145.865 16.0353 146.127 16.5728C146.394 17.106 146.527 17.7513 146.527 18.5088ZM141.233 18.5088C141.233 19.0674 141.307 19.5519 141.456 19.9624C141.604 20.3729 141.832 20.6903 142.141 20.9146C142.45 21.1388 142.848 21.251 143.334 21.251C143.817 21.251 144.213 21.1388 144.521 20.9146C144.835 20.6903 145.065 20.3729 145.213 19.9624C145.361 19.5519 145.436 19.0674 145.436 18.5088C145.436 17.9544 145.361 17.4762 145.213 17.0742C145.065 16.668 144.837 16.3548 144.528 16.1348C144.219 15.9147 143.819 15.8047 143.328 15.8047C142.604 15.8047 142.073 16.0438 141.735 16.522C141.401 17.0002 141.233 17.6624 141.233 18.5088ZM158.023 15.043V21.105H159.02V24.4058H157.998V22H153.072V24.4058H152.063V21.105H152.609C153.006 20.5549 153.337 19.9518 153.599 19.2959C153.861 18.64 154.06 17.9523 154.196 17.2329C154.331 16.5093 154.403 15.7793 154.411 15.043H158.023ZM157.001 15.8809H155.351C155.313 16.4987 155.222 17.1271 155.078 17.7661C154.938 18.4051 154.752 19.0145 154.519 19.5942C154.287 20.1698 154.016 20.6733 153.707 21.105H157.001V15.8809ZM166.221 22H165.149V15.9253H163.035C162.95 17.0213 162.842 17.9608 162.711 18.7437C162.584 19.5223 162.423 20.1592 162.229 20.6543C162.038 21.1452 161.806 21.507 161.53 21.7397C161.26 21.9683 160.936 22.0825 160.559 22.0825C160.445 22.0825 160.337 22.0762 160.236 22.0635C160.134 22.0508 160.047 22.0296 159.975 22V21.2002C160.03 21.2171 160.087 21.2298 160.147 21.2383C160.21 21.2467 160.276 21.251 160.343 21.251C160.534 21.251 160.707 21.1727 160.864 21.0161C161.025 20.8553 161.169 20.6141 161.296 20.2925C161.427 19.9709 161.543 19.5646 161.645 19.0737C161.746 18.5786 161.835 17.9967 161.911 17.3281C161.992 16.6553 162.062 15.8936 162.121 15.043H166.221V22ZM169.379 22H168.148L170.154 19.0674C169.862 19.0039 169.591 18.896 169.341 18.7437C169.092 18.5871 168.889 18.3734 168.732 18.1025C168.58 17.8317 168.504 17.4953 168.504 17.0933C168.504 16.4246 168.726 15.9168 169.17 15.5698C169.619 15.2186 170.209 15.043 170.941 15.043H174.02V22H172.966V19.207H171.201L169.379 22ZM169.525 17.0996C169.525 17.5143 169.674 17.8232 169.97 18.0264C170.266 18.2253 170.689 18.3247 171.239 18.3247H172.966V15.9253H171.055C170.514 15.9253 170.122 16.0353 169.881 16.2554C169.644 16.4712 169.525 16.7526 169.525 17.0996ZM182.608 14.916C183.129 14.916 183.579 14.988 183.96 15.1318C184.341 15.2715 184.635 15.4767 184.843 15.7476C185.05 16.0184 185.154 16.3485 185.154 16.7378C185.154 17.1567 185.039 17.491 184.811 17.7407C184.582 17.9904 184.267 18.1702 183.865 18.2803V18.3311C184.149 18.4072 184.405 18.5173 184.633 18.6611C184.866 18.8008 185.05 18.987 185.185 19.2197C185.325 19.4482 185.395 19.7339 185.395 20.0767C185.395 20.466 185.289 20.8172 185.078 21.1304C184.866 21.4393 184.544 21.6826 184.113 21.8604C183.681 22.0381 183.135 22.127 182.475 22.127C182.149 22.127 181.84 22.1079 181.548 22.0698C181.256 22.036 180.992 21.9852 180.755 21.9175C180.518 21.8498 180.31 21.7694 180.133 21.6763V20.7178C180.429 20.8617 180.776 20.9886 181.174 21.0986C181.572 21.2087 182.001 21.2637 182.462 21.2637C182.818 21.2637 183.137 21.2235 183.421 21.1431C183.704 21.0584 183.929 20.9251 184.094 20.7432C184.263 20.557 184.348 20.3136 184.348 20.0132C184.348 19.7381 184.274 19.5117 184.125 19.334C183.977 19.152 183.755 19.0187 183.459 18.9341C183.167 18.8452 182.797 18.8008 182.348 18.8008H181.415V17.9375H182.183C182.78 17.9375 183.256 17.8529 183.611 17.6836C183.967 17.5143 184.144 17.2287 184.144 16.8267C184.144 16.4797 184.007 16.2215 183.732 16.0522C183.457 15.8787 183.063 15.792 182.551 15.792C182.17 15.792 181.834 15.8322 181.542 15.9126C181.25 15.9888 180.935 16.0988 180.596 16.2427L180.222 15.3984C180.586 15.2376 180.966 15.117 181.364 15.0366C181.762 14.9562 182.177 14.916 182.608 14.916ZM190.305 14.9287C191.134 14.9287 191.75 15.1149 192.152 15.4873C192.554 15.8597 192.755 16.4543 192.755 17.271V22H191.987L191.784 20.9717H191.733C191.539 21.2256 191.335 21.4393 191.124 21.6128C190.912 21.7821 190.667 21.9111 190.387 22C190.112 22.0846 189.774 22.127 189.372 22.127C188.949 22.127 188.572 22.0529 188.242 21.9048C187.916 21.7567 187.658 21.5324 187.468 21.2319C187.281 20.9315 187.188 20.5506 187.188 20.0894C187.188 19.3953 187.463 18.8621 188.013 18.4897C188.564 18.1174 189.401 17.9142 190.527 17.8804L191.727 17.8296V17.4043C191.727 16.8034 191.598 16.3823 191.34 16.1411C191.082 15.8999 190.718 15.7793 190.248 15.7793C189.884 15.7793 189.537 15.8322 189.207 15.938C188.877 16.0438 188.564 16.1686 188.267 16.3125L187.944 15.5127C188.257 15.3519 188.617 15.2144 189.023 15.1001C189.429 14.9858 189.856 14.9287 190.305 14.9287ZM191.714 18.5723L190.654 18.6167C189.787 18.6506 189.175 18.7923 188.82 19.042C188.464 19.2917 188.286 19.645 188.286 20.1021C188.286 20.4998 188.407 20.7939 188.648 20.9844C188.889 21.1748 189.209 21.27 189.607 21.27C190.225 21.27 190.73 21.0986 191.124 20.7559C191.517 20.4131 191.714 19.8989 191.714 19.2134V18.5723ZM201.353 15.043V22H200.293V15.9507H196.586V22H195.526V15.043H201.353ZM210.186 18.5088C210.186 19.0801 210.112 19.59 209.964 20.0386C209.816 20.4871 209.602 20.8659 209.323 21.1748C209.044 21.4837 208.705 21.7207 208.307 21.8857C207.914 22.0465 207.467 22.127 206.968 22.127C206.502 22.127 206.075 22.0465 205.686 21.8857C205.301 21.7207 204.966 21.4837 204.683 21.1748C204.403 20.8659 204.185 20.4871 204.029 20.0386C203.877 19.59 203.8 19.0801 203.8 18.5088C203.8 17.7471 203.929 17.0996 204.188 16.5664C204.446 16.029 204.814 15.6206 205.292 15.3413C205.775 15.0578 206.348 14.916 207.012 14.916C207.647 14.916 208.201 15.0578 208.675 15.3413C209.154 15.6248 209.524 16.0353 209.786 16.5728C210.053 17.106 210.186 17.7513 210.186 18.5088ZM204.892 18.5088C204.892 19.0674 204.966 19.5519 205.114 19.9624C205.262 20.3729 205.491 20.6903 205.8 20.9146C206.109 21.1388 206.507 21.251 206.993 21.251C207.476 21.251 207.871 21.1388 208.18 20.9146C208.493 20.6903 208.724 20.3729 208.872 19.9624C209.02 19.5519 209.094 19.0674 209.094 18.5088C209.094 17.9544 209.02 17.4762 208.872 17.0742C208.724 16.668 208.496 16.3548 208.187 16.1348C207.878 15.9147 207.478 15.8047 206.987 15.8047C206.263 15.8047 205.732 16.0438 205.394 16.522C205.059 17.0002 204.892 17.6624 204.892 18.5088ZM217.826 22H216.753V15.9253H214.639C214.555 17.0213 214.447 17.9608 214.315 18.7437C214.188 19.5223 214.028 20.1592 213.833 20.6543C213.643 21.1452 213.41 21.507 213.135 21.7397C212.864 21.9683 212.54 22.0825 212.164 22.0825C212.049 22.0825 211.941 22.0762 211.84 22.0635C211.738 22.0508 211.652 22.0296 211.58 22V21.2002C211.635 21.2171 211.692 21.2298 211.751 21.2383C211.814 21.2467 211.88 21.251 211.948 21.251C212.138 21.251 212.312 21.1727 212.468 21.0161C212.629 20.8553 212.773 20.6141 212.9 20.2925C213.031 19.9709 213.147 19.5646 213.249 19.0737C213.351 18.5786 213.439 17.9967 213.516 17.3281C213.596 16.6553 213.666 15.8936 213.725 15.043H217.826V22ZM221.707 15.043V17.9629H225.586V15.043H226.64V22H225.586V18.8579H221.707V22H220.647V15.043H221.707ZM232.153 14.916C232.745 14.916 233.253 15.0472 233.676 15.3096C234.099 15.5719 234.423 15.9401 234.647 16.4141C234.872 16.8838 234.984 17.4339 234.984 18.0645V18.7183H230.179C230.191 19.535 230.394 20.1571 230.788 20.5845C231.181 21.0119 231.736 21.2256 232.451 21.2256C232.891 21.2256 233.28 21.1854 233.619 21.105C233.957 21.0246 234.309 20.9061 234.673 20.7495V21.6763C234.321 21.8328 233.972 21.9471 233.625 22.019C233.283 22.091 232.876 22.127 232.407 22.127C231.738 22.127 231.154 21.9915 230.655 21.7207C230.159 21.4456 229.774 21.0436 229.499 20.5146C229.224 19.9857 229.087 19.3382 229.087 18.5723C229.087 17.8232 229.212 17.1758 229.461 16.6299C229.715 16.0798 230.071 15.6566 230.528 15.3604C230.989 15.0641 231.531 14.916 232.153 14.916ZM232.14 15.7793C231.577 15.7793 231.129 15.9634 230.794 16.3315C230.46 16.6997 230.261 17.2139 230.198 17.874H233.879C233.875 17.4593 233.809 17.0954 233.682 16.7822C233.56 16.4648 233.371 16.2194 233.117 16.0459C232.864 15.8682 232.538 15.7793 232.14 15.7793ZM238.434 15.043V17.9629H242.312V15.043H243.366V22H242.312V18.8579H238.434V22H237.374V15.043H238.434ZM247.203 15.043V19.4165C247.203 19.5011 247.201 19.6112 247.197 19.7466C247.193 19.8778 247.186 20.0195 247.178 20.1719C247.169 20.32 247.161 20.4639 247.152 20.6035C247.148 20.7389 247.142 20.8511 247.133 20.9399L250.929 15.043H252.224V22H251.24V17.7344C251.24 17.599 251.242 17.4255 251.247 17.2139C251.251 17.0023 251.257 16.7949 251.266 16.5918C251.274 16.3844 251.281 16.2236 251.285 16.1094L247.502 22H246.2V15.043H247.203ZM255.401 22H254.17L256.176 19.0674C255.884 19.0039 255.613 18.896 255.363 18.7437C255.114 18.5871 254.91 18.3734 254.754 18.1025C254.602 17.8317 254.525 17.4953 254.525 17.0933C254.525 16.4246 254.748 15.9168 255.192 15.5698C255.64 15.2186 256.231 15.043 256.963 15.043H260.042V22H258.988V19.207H257.223L255.401 22ZM255.547 17.0996C255.547 17.5143 255.695 17.8232 255.992 18.0264C256.288 18.2253 256.711 18.3247 257.261 18.3247H258.988V15.9253H257.077C256.535 15.9253 256.144 16.0353 255.903 16.2554C255.666 16.4712 255.547 16.7526 255.547 17.0996Z" fill="white"/>
<path d="M0 0L6 6H0V0Z" fill="#F25931"/>
<defs>
<clipPath id="clip0_228_79">
<rect width="16.2" height="13.5" fill="white" transform="translate(2.40039 10)"/>
</clipPath>
</defs>
</svg>
